<?xml version="1.0" encoding="UTF-8"?>
<svg id="Ebene_1" xmlns="http://www.w3.org/2000/svg" viewBox="0 0 218.95 30.08">
  <defs>
    <style>
      .cls-1 {
        fill: none;
      }

      .cls-2 {
        fill: #fff;
      }

      .cls-3 {
        fill: #3da99a;
      }

      .cls-4 {
        fill: #ca3269;
      }

      .cls-5 {
        fill: #4568b0;
      }
    </style>
  </defs>
  <g>
    <rect class="cls-1" x="31.09" y="-1.06" width="187.86" height="31.13"/>
    <path class="cls-2" d="M33.73.55h10.8c4.32,0,8.12,1.4,10.84,4.08,2.72,2.68,4.2,6.32,4.2,10.4s-1.48,7.72-4.2,10.4c-2.72,2.68-6.48,4.08-10.8,4.08h-10.84V.55ZM50.45,21.71c1.72-1.52,2.76-3.96,2.76-6.68s-1.04-5.16-2.76-6.68c-1.72-1.52-3.96-2.24-6.48-2.24h-3.88v17.84h3.88c2.52,0,4.76-.72,6.48-2.24Z"/>
    <path class="cls-2" d="M63.45.55h17.88v5.56h-11.52v5.84h9.92v5.36h-9.92v6.64h11.96v5.56h-18.32V.55Z"/>
    <path class="cls-2" d="M99.85,29.94c-9.28,0-15.72-6.4-15.72-14.84S90.61.11,99.89.11c3.08,0,6,.72,8.28,2v6.28c-2.2-1.56-5.12-2.6-8.04-2.6-5.68,0-9.6,3.96-9.6,9.2s3.84,9.28,9.84,9.28c2.96,0,5.8-1.04,8.04-2.64v6.24c-2.4,1.4-5.6,2.08-8.56,2.08Z"/>
    <path class="cls-2" d="M118.53.55v16.12c0,2.08.28,3.92,1.36,5.32,1.08,1.4,2.72,2.24,5,2.24s3.92-.84,5-2.24c1.08-1.4,1.4-3.24,1.4-5.32V.55h6.12v16.52c0,3.2-.68,6.44-2.8,8.88-2.12,2.44-5.52,4-9.84,4s-7.72-1.52-9.8-4c-2.08-2.48-2.8-5.56-2.8-8.88V.55h6.36Z"/>
    <path class="cls-2" d="M142.41.55h10.32c3.32,0,5.88.52,8,2.08s3.56,4.08,3.56,7.36-1.44,5.8-3.56,7.36c-2.12,1.56-4.68,2.12-8,2.12h-3.96v10.04h-6.36V.55ZM152.49,14.11c1.8,0,3-.2,3.92-.84.92-.64,1.52-1.84,1.52-3.2s-.6-2.6-1.52-3.24c-.92-.64-2.12-.84-3.92-.84h-3.72v8.12h3.72Z"/>
    <path class="cls-2" d="M167.97.55h6.36v23.4h12.68v5.56h-19.04V.55Z"/>
    <path class="cls-2" d="M199.25.55h6.48l11.6,28.96h-6.8l-2.36-6.08h-11.64l-2.36,6.08h-6.52L199.25.55ZM206.29,18.43l-1.16-3.12c-.88-2.4-1.92-5.28-2.64-7.44h-.08c-.8,2.28-1.8,5.04-2.76,7.48l-1.2,3.08h7.84Z"/>
  </g>
  <rect class="cls-5" x="15.62" y="15.9" width="13.61" height="13.61"/>
  <rect class="cls-4" x="15.62" y=".54" width="13.61" height="13.61"/>
  <rect class="cls-3" x=".15" y="15.9" width="13.61" height="13.61"/>
</svg>